<?xml version="1.0" encoding="utf-8"?>
<!-- Generator: Adobe Illustrator 17.0.0, SVG Export Plug-In . SVG Version: 6.00 Build 0)  -->
<!DOCTYPE svg PUBLIC "-//W3C//DTD SVG 1.1//EN" "http://www.w3.org/Graphics/SVG/1.1/DTD/svg11.dtd">
<svg version="1.1" xmlns="http://www.w3.org/2000/svg" xmlns:xlink="http://www.w3.org/1999/xlink" x="0px" y="0px" width="47.3px"
	 height="107.3px" viewBox="0 0 47.3 107.3" enable-background="new 0 0 47.3 107.3" xml:space="preserve">
<g id="Layer_2" display="none">
	
		<image display="inline" overflow="visible" width="600" height="305" xlink:href="mouse-clipart-3.png"  transform="matrix(0.5743 0 0 0.5743 -6.8333 83)">
	</image>
</g>
<g id="Layer_1">
</g>
<g id="Layer_3">
	<g>
		<polygon fill="none" stroke="#000000" stroke-miterlimit="10" points="46.7,51.5 0.7,51.5 0.7,19.9 23.5,1.4 46.7,19.9 		"/>
		<rect x="18.7" y="36.5" fill="none" stroke="#000000" stroke-miterlimit="10" width="11" height="15"/>
		<g>
			<g>
				<line fill="none" stroke="#000000" stroke-miterlimit="10" x1="8.8" y1="24.4" x2="18.5" y2="32.9"/>
				<line fill="none" stroke="#000000" stroke-miterlimit="10" x1="8.8" y1="32.9" x2="18.5" y2="24.4"/>
			</g>
			<g>
				<line fill="none" stroke="#000000" stroke-miterlimit="10" x1="29.6" y1="24.4" x2="39.3" y2="32.9"/>
				<line fill="none" stroke="#000000" stroke-miterlimit="10" x1="29.6" y1="32.9" x2="39.3" y2="24.4"/>
			</g>
		</g>
	</g>
	<g>
		<g>
			<line fill="none" stroke="#000000" stroke-miterlimit="10" x1="6.7" y1="70.6" x2="7.8" y2="73"/>
			<line fill="none" stroke="#000000" stroke-miterlimit="10" x1="6.7" y1="73.2" x2="7.9" y2="70.6"/>
		</g>
		<g>
			<line fill="none" stroke="#000000" stroke-miterlimit="10" x1="1.6" y1="75.3" x2="2.5" y2="77.4"/>
			<line fill="none" stroke="#000000" stroke-miterlimit="10" x1="1.6" y1="77.5" x2="2.6" y2="75.3"/>
		</g>
		<path fill="none" stroke="#000000" stroke-miterlimit="10" d="M22,92.5c0,0-1.4-0.1-1.8-0.1c-0.4,0-1.1,1.3-1.1,1.3l-0.6,1.6
			l3.7-0.1l3.4-2.4c0,0,1.2,0.5,3.3-0.9s2.4-2.7,2.4-2.7s2.7-0.8,8.6,1.9c5.9,2.8,4,6.5,4,6.5s-1.9,4.6-6.1,4.6s-10.8-1.6-10.8-1.6
			s-3.8-1.5-5.5,0s-4,2.9-4,2.9s6.1-2.2,7.8-1.1c1.7,1.1,9.3,3.7,15.1,1.7c5.7-2,5.5-8,5.5-8s0.6-5.2-3.5-8
			c-4.1-2.8-10.9-2.8-10.9-2.8s0.4-7.8-0.1-12.8c-0.5-5-3-9.3-3-9.3s-2.3-3.3-5.2-3.2s-6.5,3.2-6.5,3.2s-0.4-8.1-3.5-6.5
			c-3.1,1.7-3.8,8.9-3.8,8.9L6.8,68l-2.7,5.4c0,0-2.9,1.7-2.9,2.3s1,5.7,3.6,4.8s2.4,3,5.3,1.6c0.2-0.1,0.5,0.9,0.5,1.8
			c-0.1,1.2-0.7,1.9-0.9,2.3c-0.9,1.3-2.1,1.4-2.1,1.2c-0.2-0.4-1.6,1.7-1.6,1.7L7.1,90l3.9,0.1l-1.4,3.7c0,0-1.2,0.4-1.6,1
			s-0.6,1.5-0.6,1.5l3.4,0l3.6-4.4c0,0,4.8-1.9,4.9-3.8C19.5,91.2,22,92.5,22,92.5z"/>
		<path fill="none" stroke="#000000" stroke-miterlimit="10" d="M7.5,67.4c0,0-0.2-1.3,0.7-4.6s2.4-2.1,2.4-2.1"/>
	</g>
</g>
</svg>
